{"title":"South of Heaven (2008) DVDRip","uid":8316628,"size":1305959864,"categoryP":"video","categoryS":"movies","magnet":"?xt=urn:btih:5bb9ab18834c605dcb5fe2ca9a2a8eb7ff77a8c3&amp;dn=South+of+Heaven+%282008%29+DVDRip&amp;tr=udp%3A%2F%2Ftracker.openbittorrent.com%3A80&amp;tr=udp%3A%2F%2Fopen.demonii.com%3A1337&amp;tr=udp%3A%2F%2Ftracker.coppersurfer.tk%3A6969&amp;tr=udp%3A%2F%2Fexodus.desync.com%3A6969","seeders":1,"leechers":3,"uploader":"RadioResearch","files":3,"time":1364602109,"description":"*******************************************************************************\n                         South of Heaven (2008) DVDRip\n*******************************************************************************\n\n-------------------------------------------------------------------------------\n                              General Information\n-------------------------------------------------------------------------------\nType.................: Movie\n\n\n\nVideo Format.........: AVI\nVideo Bitrate........: 1787\nResolution...........: 20 x 404\nColor................: 8 bit\nFPS..................: 23.976\nSource...............: DVD 16x9\nOriginal Format......: NTSC\nGenre................: Comedy / Crime\nIMDb Rating..........: 6.4\nMovie Information....: http://www.imdb.com/title/tt0448128/\n\n-------------------------------------------------------------------------------\n                               Post Information\n-------------------------------------------------------------------------------\nPosted by............: RadioResearch\nPosted on............: 3/29/2013\n\n-------------------------------------------------------------------------------\n                                 Release Notes\n-------------------------------------------------------------------------------\nSEEDBOX SUPPORTED!!\n\nWhen Roy Coop finished his stint in the Navy, he only had two things on his \nmind: seeing his brother Dale, and writing the great American novel. What he \ngets, however, is the homecoming from Hell! A pair of violent vaudevillians \n(NAPOLEON DYNAMITE's Jon Gries, and Thomas Jay Ryan) mistake Roy for his \nbrother, looking to collect on a debt he didn't know he owed. Eight fingers \nlater, Roy is burnt to a crisp, forged by fire into a new man. Roy is dead. \nNobody is born. Now it's Nobody's turn to have his wicked revenge, and to save \nhis brother before it's too late. Wrapped in bandages and ready for blood, \nNobody is determined to kill those that get in his way, even the murdering \nmasochist named Mad Dog Mantee (Shea Whigham, MACHETE and HBO's BOARDWALK \nEMPIRE). Dodging bullets and dodging dames, Nobody meets the nasty ne'er-do-\nwells Lily (Diora Baird, THE TEXAS CHAINSAW MASSACRE: THE BEGINNING) and \nVeronica (Elina Lowensohn, SCHINDLER'S LIST). In this wonderful neo-film-noir, \nviolence and vengeance are sure to meet in a little town they call South of \nHeaven.\n\nEnjoy!!\n\nRadioResearch\n\nGeneral\nComplete name                            : G:AVIaviSOUTH_OF_HEAVENSouth of \nHeaven (2008) DVDRipSOUTH_OF_HEAVEN.Title4.avi\nFormat                                   : AVI\nFormat/Info                              : Audio Video Interleave\nFormat profile                           : OpenDML\nFile size                                : 1.22 GiB\nDuration                                 : 1h 37mn\nOverall bit rate                         : 1 787 Kbps\nMovie name                               : SOUTH_OF_HEAVEN.Title4.DVDRip\nWriting application                      : Lavf53.32.100\nOriginal source form/Name                : SOUTH_OF_HEAVEN\n\nVideo\nID                                       : 0\nFormat                                   : MPEG-4 Visual\nFormat profile                           : Advanced Simple@L5\nFormat settings, BVOP                    : 2\nFormat settings, QPel                    : No\nFormat settings, GMC                     : No warppoints\nFormat settings, Matrix                  : Default (H.263)\nMuxing mode                              : Packed bitstream\nCodec ID                                 : XVID\nCodec ID/Hint                            : XviD\nDuration                                 : 1h 37mn\nBit rate                                 : 1 327 Kbps\nWidth                                    : 720 pixels\nHeight                                   : 404 pixels\nDisplay aspect ratio                     : 16:9\nFrame rate                               : 23.976 fps\nColor space                              : YUV\nChroma subsampling                       : 4:2:0\nBit depth                                : 8 bits\nScan type                                : Progressive\nCompression mode                         : Lossy\nBits/(Pixel*Frame)                       : 0.190\nStream size                              : 925 MiB (74%)\nWriting library                          : XviD 64\n\nAudio\nID                                       : 1\nFormat                                   : AC-3\nFormat/Info                              : Audio Coding 3\nMode extension                           : CM (complete main)\nFormat settings, Endianness              : Big\nCodec ID                                 : 2000\nDuration                                 : 1h 37mn\nBit rate mode                            : Constant\nBit rate                                 : 448 Kbps\nChannel(s)                               : 6 channels\nChannel positions                        : Front: L C R, Side: L R, LFE\nSampling rate                            : 48.0 KHz\nBit depth                                : 16 bits\nCompression mode                         : Lossy\nStream size                              : 311 MiB (25%)\nAlignment                                : Aligned on interleaves\nInterleave, duration                     : 32 ms (0.77 video frame)\n\n\n\n\n-------------------------------------------------------------------------------\nGenerated with Cool NFO Creator - http://fly.to/coolbeans\n-------------------------------------------------------------------------------\n","torrent":{"xt":"urn:btih:5bb9ab18834c605dcb5fe2ca9a2a8eb7ff77a8c3","amp;dn":"South+of+Heaven+%282008%29+DVDRip","amp;tr":["udp%3A%2F%2Ftracker.openbittorrent.com%3A80","udp%3A%2F%2Fopen.demonii.com%3A1337","udp%3A%2F%2Ftracker.coppersurfer.tk%3A6969","udp%3A%2F%2Fexodus.desync.com%3A6969"],"infoHash":"5bb9ab18834c605dcb5fe2ca9a2a8eb7ff77a8c3","infoHashBuffer":{"type":"Buffer","data":[91,185,171,24,131,76,96,93,203,95,226,202,154,42,142,183,255,119,168,195]},"announce":[],"urlList":[]}}